<svg width="40" height="40" viewBox="0 0 40 40" fill="none" xmlns="http://www.w3.org/2000/svg">
  <circle cx="20" cy="20" r="20" fill="#1B5E20"/>
  <path d="M12 28C12 28 14 26 20 26C26 26 28 28 28 28V30C28 31.1 27.1 32 26 32H14C12.9 32 12 31.1 12 30V28Z" fill="#4CAF50"/>
  <path d="M20 8C18 8 16 9 15 11C14 9 12 8 10 8C8 8 6 10 6 12C6 16 10 20 15 24L20 28L25 24C30 20 34 16 34 12C34 10 32 8 30 8C28 8 26 9 25 11C24 9 22 8 20 8Z" fill="#66BB6A"/>
  <circle cx="20" cy="15" r="2" fill="#1B5E20"/>
  <path d="M15 18L20 22L25 18" stroke="#1B5E20" stroke-width="1.5" stroke-linecap="round" stroke-linejoin="round"/>
</svg>
